<svg xmlns="http://www.w3.org/2000/svg" xmlns:xlink="http://www.w3.org/1999/xlink" width="500" zoomAndPan="magnify" viewBox="0 0 375 374.999991" height="500" preserveAspectRatio="xMidYMid meet" version="1.0"><defs><g/></defs><rect x="-37.5" width="450" fill="#ffffff" y="-37.499999" height="449.999989" fill-opacity="1"/><rect x="-37.5" width="450" fill="#e4fcfc" y="-37.499999" height="449.999989" fill-opacity="1"/><path fill="#7cc0f6" d="M 229.03125 154.378906 C 228.589844 155.386719 228.148438 156.394531 227.703125 157.394531 C 226.164062 157.539062 224.402344 157.722656 222.738281 157.957031 C 218.371094 158.566406 212.882812 160.324219 201.960938 165.417969 C 191.042969 170.515625 181.757812 182.347656 174.386719 193.082031 C 167.019531 203.820312 159.738281 227.753906 153.824219 228.664062 C 147.90625 229.574219 143.085938 220.109375 140.808594 216.289062 C 138.535156 212.464844 132.894531 200.546875 130.34375 194.539062 C 127.796875 188.535156 120.273438 167.117188 116.269531 153.042969 C 112.265625 138.96875 110.6875 125.378906 110.324219 107.789062 C 109.960938 90.191406 119.664062 80.488281 127.917969 77.210938 C 128.027344 77.167969 128.136719 77.128906 128.25 77.089844 C 132.523438 75.597656 139.980469 76.738281 148.710938 80.117188 C 157.316406 83.445312 167.167969 88.953125 176.421875 96.261719 C 176.421875 96.261719 160.464844 88.980469 149.363281 89.253906 C 138.261719 89.527344 130.527344 95.714844 126.523438 103.722656 C 122.519531 111.730469 121.609375 128.292969 123.066406 141.757812 C 124.519531 155.226562 130.34375 175.976562 133.984375 187.261719 C 137.625 198.542969 144.085938 208.828125 148.179688 211.558594 C 152.277344 214.285156 154.734375 210.191406 160.070312 198.664062 C 165.410156 187.140625 179.359375 174.035156 186.402344 168.332031 C 192.910156 163.054688 213.496094 155.648438 229.03125 154.378906 " fill-opacity="1" fill-rule="nonzero"/><path fill="#7cc0f6" d="M 127.429688 74.90625 C 133.378906 72.359375 147.695312 73.570312 161.40625 81.335938 C 175.117188 89.101562 186.398438 95.773438 199.988281 92.015625 C 213.578125 88.253906 229.59375 83.15625 239.421875 88.496094 C 249.25 93.832031 249.128906 108.148438 245.246094 122.710938 C 241.363281 137.269531 225.589844 174.15625 217.582031 185.683594 C 209.574219 197.207031 207.027344 201.941406 207.027344 201.941406 C 259.5625 148.070312 265.023438 104.632812 263.019531 96.261719 C 261.019531 87.886719 258.714844 84.613281 254.589844 81.941406 C 250.464844 79.273438 239.90625 73.9375 225.347656 78.0625 C 210.789062 82.1875 205.207031 85.097656 201.324219 86.433594 C 197.441406 87.765625 187.550781 88.617188 182.214844 87.160156 C 176.875 85.703125 159.21875 74.664062 149.636719 72.84375 C 135.347656 70.234375 127.429688 74.90625 127.429688 74.90625 " fill-opacity="1" fill-rule="nonzero"/><g fill="#051d30" fill-opacity="1"><g transform="translate(94.454208, 265.884338)"><g><path d="M 10.828125 0.53125 C 9.441406 0.53125 8.15625 0.289062 6.96875 -0.1875 C 5.789062 -0.675781 4.773438 -1.359375 3.921875 -2.234375 C 3.066406 -3.109375 2.394531 -4.140625 1.90625 -5.328125 C 1.425781 -6.515625 1.1875 -7.820312 1.1875 -9.25 C 1.1875 -10.675781 1.425781 -11.984375 1.90625 -13.171875 C 2.394531 -14.359375 3.066406 -15.390625 3.921875 -16.265625 C 4.773438 -17.140625 5.789062 -17.816406 6.96875 -18.296875 C 8.15625 -18.785156 9.441406 -19.03125 10.828125 -19.03125 C 12.222656 -19.03125 13.503906 -18.785156 14.671875 -18.296875 C 15.847656 -17.816406 16.867188 -17.140625 17.734375 -16.265625 C 18.597656 -15.390625 19.269531 -14.359375 19.75 -13.171875 C 20.238281 -11.984375 20.484375 -10.675781 20.484375 -9.25 C 20.484375 -7.820312 20.238281 -6.515625 19.75 -5.328125 C 19.269531 -4.140625 18.597656 -3.109375 17.734375 -2.234375 C 16.867188 -1.359375 15.847656 -0.675781 14.671875 -0.1875 C 13.503906 0.289062 12.222656 0.53125 10.828125 0.53125 Z M 10.828125 -1.71875 C 11.890625 -1.71875 12.863281 -1.894531 13.75 -2.25 C 14.644531 -2.613281 15.410156 -3.125 16.046875 -3.78125 C 16.691406 -4.445312 17.191406 -5.242188 17.546875 -6.171875 C 17.910156 -7.097656 18.09375 -8.125 18.09375 -9.25 C 18.09375 -10.375 17.910156 -11.398438 17.546875 -12.328125 C 17.191406 -13.253906 16.691406 -14.046875 16.046875 -14.703125 C 15.410156 -15.359375 14.644531 -15.867188 13.75 -16.234375 C 12.863281 -16.597656 11.890625 -16.78125 10.828125 -16.78125 C 9.773438 -16.78125 8.800781 -16.597656 7.90625 -16.234375 C 7.019531 -15.867188 6.253906 -15.359375 5.609375 -14.703125 C 4.972656 -14.046875 4.472656 -13.253906 4.109375 -12.328125 C 3.742188 -11.398438 3.5625 -10.375 3.5625 -9.25 C 3.5625 -8.125 3.742188 -7.097656 4.109375 -6.171875 C 4.472656 -5.242188 4.972656 -4.445312 5.609375 -3.78125 C 6.253906 -3.125 7.019531 -2.613281 7.90625 -2.25 C 8.800781 -1.894531 9.773438 -1.71875 10.828125 -1.71875 Z M 10.828125 -1.71875 "/></g></g></g><g fill="#051d30" fill-opacity="1"><g transform="translate(116.11263, 265.884338)"><g><path d="M 2.109375 -18.5 L 8.1875 -18.5 C 9.582031 -18.5 10.867188 -18.257812 12.046875 -17.78125 C 13.222656 -17.300781 14.242188 -16.644531 15.109375 -15.8125 C 15.972656 -14.988281 16.640625 -14.015625 17.109375 -12.890625 C 17.585938 -11.765625 17.828125 -10.550781 17.828125 -9.25 C 17.828125 -7.945312 17.585938 -6.726562 17.109375 -5.59375 C 16.640625 -4.46875 15.972656 -3.488281 15.109375 -2.65625 C 14.242188 -1.832031 13.222656 -1.179688 12.046875 -0.703125 C 10.867188 -0.234375 9.582031 0 8.1875 0 L 2.109375 0 Z M 8.1875 -2.25 C 9.28125 -2.25 10.269531 -2.421875 11.15625 -2.765625 C 12.050781 -3.109375 12.816406 -3.59375 13.453125 -4.21875 C 14.085938 -4.84375 14.578125 -5.582031 14.921875 -6.4375 C 15.273438 -7.289062 15.453125 -8.226562 15.453125 -9.25 C 15.453125 -10.269531 15.273438 -11.207031 14.921875 -12.0625 C 14.578125 -12.914062 14.085938 -13.65625 13.453125 -14.28125 C 12.816406 -14.90625 12.050781 -15.390625 11.15625 -15.734375 C 10.269531 -16.078125 9.28125 -16.25 8.1875 -16.25 L 4.484375 -16.25 L 4.484375 -2.25 Z M 8.1875 -2.25 "/></g></g></g><g fill="#051d30" fill-opacity="1"><g transform="translate(135.129781, 265.884338)"><g><path d="M 10.828125 0.53125 C 9.441406 0.53125 8.15625 0.289062 6.96875 -0.1875 C 5.789062 -0.675781 4.773438 -1.359375 3.921875 -2.234375 C 3.066406 -3.109375 2.394531 -4.140625 1.90625 -5.328125 C 1.425781 -6.515625 1.1875 -7.820312 1.1875 -9.25 C 1.1875 -10.675781 1.425781 -11.984375 1.90625 -13.171875 C 2.394531 -14.359375 3.066406 -15.390625 3.921875 -16.265625 C 4.773438 -17.140625 5.789062 -17.816406 6.96875 -18.296875 C 8.15625 -18.785156 9.441406 -19.03125 10.828125 -19.03125 C 12.222656 -19.03125 13.503906 -18.785156 14.671875 -18.296875 C 15.847656 -17.816406 16.867188 -17.140625 17.734375 -16.265625 C 18.597656 -15.390625 19.269531 -14.359375 19.75 -13.171875 C 20.238281 -11.984375 20.484375 -10.675781 20.484375 -9.25 C 20.484375 -7.820312 20.238281 -6.515625 19.75 -5.328125 C 19.269531 -4.140625 18.597656 -3.109375 17.734375 -2.234375 C 16.867188 -1.359375 15.847656 -0.675781 14.671875 -0.1875 C 13.503906 0.289062 12.222656 0.53125 10.828125 0.53125 Z M 10.828125 -1.71875 C 11.890625 -1.71875 12.863281 -1.894531 13.75 -2.25 C 14.644531 -2.613281 15.410156 -3.125 16.046875 -3.78125 C 16.691406 -4.445312 17.191406 -5.242188 17.546875 -6.171875 C 17.910156 -7.097656 18.09375 -8.125 18.09375 -9.25 C 18.09375 -10.375 17.910156 -11.398438 17.546875 -12.328125 C 17.191406 -13.253906 16.691406 -14.046875 16.046875 -14.703125 C 15.410156 -15.359375 14.644531 -15.867188 13.75 -16.234375 C 12.863281 -16.597656 11.890625 -16.78125 10.828125 -16.78125 C 9.773438 -16.78125 8.800781 -16.597656 7.90625 -16.234375 C 7.019531 -15.867188 6.253906 -15.359375 5.609375 -14.703125 C 4.972656 -14.046875 4.472656 -13.253906 4.109375 -12.328125 C 3.742188 -11.398438 3.5625 -10.375 3.5625 -9.25 C 3.5625 -8.125 3.742188 -7.097656 4.109375 -6.171875 C 4.472656 -5.242188 4.972656 -4.445312 5.609375 -3.78125 C 6.253906 -3.125 7.019531 -2.613281 7.90625 -2.25 C 8.800781 -1.894531 9.773438 -1.71875 10.828125 -1.71875 Z M 10.828125 -1.71875 "/></g></g></g><g fill="#051d30" fill-opacity="1"><g transform="translate(156.788204, 265.884338)"><g><path d="M 2.109375 -18.5 L 5.546875 -18.5 L 14.640625 -2.90625 L 14.6875 -2.90625 L 14.671875 -3.171875 L 14.671875 -18.5 L 17.046875 -18.5 L 17.046875 0 L 13.609375 0 L 4.515625 -15.59375 L 4.46875 -15.59375 L 4.484375 -15.328125 L 4.484375 -0.03125 L 2.109375 0 Z M 2.109375 -18.5 "/></g></g></g><g fill="#051d30" fill-opacity="1"><g transform="translate(175.937416, 265.884338)"><g><path d="M 6.609375 -16.25 L 0.265625 -16.25 L 0.265625 -18.5 L 15.328125 -18.5 L 15.328125 -16.25 L 8.984375 -16.25 L 8.984375 0 L 6.609375 0 Z M 6.609375 -16.25 "/></g></g></g><g fill="#051d30" fill-opacity="1"><g transform="translate(191.520918, 265.884338)"><g><path d="M 10.828125 0.53125 C 9.441406 0.53125 8.15625 0.289062 6.96875 -0.1875 C 5.789062 -0.675781 4.773438 -1.359375 3.921875 -2.234375 C 3.066406 -3.109375 2.394531 -4.140625 1.90625 -5.328125 C 1.425781 -6.515625 1.1875 -7.820312 1.1875 -9.25 C 1.1875 -10.675781 1.425781 -11.984375 1.90625 -13.171875 C 2.394531 -14.359375 3.066406 -15.390625 3.921875 -16.265625 C 4.773438 -17.140625 5.789062 -17.816406 6.96875 -18.296875 C 8.15625 -18.785156 9.441406 -19.03125 10.828125 -19.03125 C 12.222656 -19.03125 13.503906 -18.785156 14.671875 -18.296875 C 15.847656 -17.816406 16.867188 -17.140625 17.734375 -16.265625 C 18.597656 -15.390625 19.269531 -14.359375 19.75 -13.171875 C 20.238281 -11.984375 20.484375 -10.675781 20.484375 -9.25 C 20.484375 -7.820312 20.238281 -6.515625 19.75 -5.328125 C 19.269531 -4.140625 18.597656 -3.109375 17.734375 -2.234375 C 16.867188 -1.359375 15.847656 -0.675781 14.671875 -0.1875 C 13.503906 0.289062 12.222656 0.53125 10.828125 0.53125 Z M 10.828125 -1.71875 C 11.890625 -1.71875 12.863281 -1.894531 13.75 -2.25 C 14.644531 -2.613281 15.410156 -3.125 16.046875 -3.78125 C 16.691406 -4.445312 17.191406 -5.242188 17.546875 -6.171875 C 17.910156 -7.097656 18.09375 -8.125 18.09375 -9.25 C 18.09375 -10.375 17.910156 -11.398438 17.546875 -12.328125 C 17.191406 -13.253906 16.691406 -14.046875 16.046875 -14.703125 C 15.410156 -15.359375 14.644531 -15.867188 13.75 -16.234375 C 12.863281 -16.597656 11.890625 -16.78125 10.828125 -16.78125 C 9.773438 -16.78125 8.800781 -16.597656 7.90625 -16.234375 C 7.019531 -15.867188 6.253906 -15.359375 5.609375 -14.703125 C 4.972656 -14.046875 4.472656 -13.253906 4.109375 -12.328125 C 3.742188 -11.398438 3.5625 -10.375 3.5625 -9.25 C 3.5625 -8.125 3.742188 -7.097656 4.109375 -6.171875 C 4.472656 -5.242188 4.972656 -4.445312 5.609375 -3.78125 C 6.253906 -3.125 7.019531 -2.613281 7.90625 -2.25 C 8.800781 -1.894531 9.773438 -1.71875 10.828125 -1.71875 Z M 10.828125 -1.71875 "/></g></g></g><g fill="#051d30" fill-opacity="1"><g transform="translate(213.17934, 265.884338)"><g><path d="M 2.109375 -18.5 L 9.90625 -18.5 C 10.96875 -18.5 11.921875 -18.34375 12.765625 -18.03125 C 13.609375 -17.726562 14.328125 -17.300781 14.921875 -16.75 C 15.523438 -16.207031 15.984375 -15.566406 16.296875 -14.828125 C 16.617188 -14.085938 16.78125 -13.285156 16.78125 -12.421875 C 16.78125 -11.554688 16.617188 -10.753906 16.296875 -10.015625 C 15.984375 -9.273438 15.523438 -8.628906 14.921875 -8.078125 C 14.328125 -7.535156 13.609375 -7.109375 12.765625 -6.796875 C 11.921875 -6.492188 10.96875 -6.34375 9.90625 -6.34375 L 4.484375 -6.34375 L 4.484375 0 L 2.109375 0 Z M 9.90625 -8.59375 C 11.363281 -8.59375 12.476562 -8.945312 13.25 -9.65625 C 14.019531 -10.375 14.40625 -11.296875 14.40625 -12.421875 C 14.40625 -13.546875 14.019531 -14.460938 13.25 -15.171875 C 12.476562 -15.890625 11.363281 -16.25 9.90625 -16.25 L 4.484375 -16.25 L 4.484375 -8.59375 Z M 9.90625 -8.59375 "/></g></g></g><g fill="#051d30" fill-opacity="1"><g transform="translate(230.875856, 265.884338)"><g><path d="M 2.109375 -18.5 L 4.484375 -18.5 L 4.484375 -2.25 L 14.140625 -2.25 L 14.140625 0 L 2.109375 0 Z M 2.109375 -18.5 "/></g></g></g><g fill="#051d30" fill-opacity="1"><g transform="translate(245.138722, 265.884338)"><g><path d="M 9.25 0.53125 C 8.15625 0.53125 7.160156 0.351562 6.265625 0 C 5.378906 -0.351562 4.617188 -0.851562 3.984375 -1.5 C 3.347656 -2.15625 2.851562 -2.945312 2.5 -3.875 C 2.15625 -4.800781 1.984375 -5.84375 1.984375 -7 L 1.984375 -18.5 L 4.359375 -18.5 L 4.359375 -7 C 4.359375 -6.175781 4.476562 -5.4375 4.71875 -4.78125 C 4.957031 -4.132812 5.289062 -3.582031 5.71875 -3.125 C 6.15625 -2.664062 6.671875 -2.316406 7.265625 -2.078125 C 7.867188 -1.835938 8.53125 -1.71875 9.25 -1.71875 C 9.96875 -1.71875 10.625 -1.835938 11.21875 -2.078125 C 11.820312 -2.316406 12.335938 -2.664062 12.765625 -3.125 C 13.203125 -3.582031 13.539062 -4.132812 13.78125 -4.78125 C 14.019531 -5.4375 14.140625 -6.175781 14.140625 -7 L 14.140625 -18.5 L 16.515625 -18.5 L 16.515625 -7 C 16.515625 -5.84375 16.335938 -4.800781 15.984375 -3.875 C 15.628906 -2.945312 15.132812 -2.15625 14.5 -1.5 C 13.863281 -0.851562 13.101562 -0.351562 12.21875 0 C 11.332031 0.351562 10.34375 0.53125 9.25 0.53125 Z M 9.25 0.53125 "/></g></g></g><g fill="#051d30" fill-opacity="1"><g transform="translate(263.627617, 265.884338)"><g><path d="M 8.71875 0.53125 C 7.875 0.53125 7.113281 0.445312 6.4375 0.28125 C 5.769531 0.113281 5.179688 -0.101562 4.671875 -0.375 C 4.160156 -0.65625 3.710938 -0.96875 3.328125 -1.3125 C 2.941406 -1.65625 2.613281 -2.007812 2.34375 -2.375 C 1.71875 -3.21875 1.289062 -4.1875 1.0625 -5.28125 L 3.4375 -5.28125 C 3.613281 -4.613281 3.929688 -4.015625 4.390625 -3.484375 C 4.773438 -3.023438 5.3125 -2.613281 6 -2.25 C 6.6875 -1.894531 7.59375 -1.71875 8.71875 -1.71875 C 9.507812 -1.71875 10.195312 -1.800781 10.78125 -1.96875 C 11.363281 -2.132812 11.84375 -2.363281 12.21875 -2.65625 C 12.59375 -2.945312 12.875 -3.285156 13.0625 -3.671875 C 13.25 -4.054688 13.34375 -4.460938 13.34375 -4.890625 C 13.34375 -5.453125 13.175781 -5.914062 12.84375 -6.28125 C 12.519531 -6.65625 12.085938 -6.972656 11.546875 -7.234375 C 11.003906 -7.503906 10.390625 -7.734375 9.703125 -7.921875 C 9.015625 -8.117188 8.3125 -8.316406 7.59375 -8.515625 C 6.882812 -8.722656 6.1875 -8.957031 5.5 -9.21875 C 4.8125 -9.488281 4.191406 -9.816406 3.640625 -10.203125 C 3.097656 -10.585938 2.660156 -11.066406 2.328125 -11.640625 C 2.003906 -12.210938 1.84375 -12.910156 1.84375 -13.734375 C 1.84375 -14.421875 2 -15.085938 2.3125 -15.734375 C 2.625 -16.378906 3.0625 -16.941406 3.625 -17.421875 C 4.1875 -17.910156 4.875 -18.300781 5.6875 -18.59375 C 6.507812 -18.882812 7.429688 -19.03125 8.453125 -19.03125 C 9.234375 -19.03125 9.9375 -18.953125 10.5625 -18.796875 C 11.1875 -18.648438 11.734375 -18.457031 12.203125 -18.21875 C 12.679688 -17.976562 13.097656 -17.695312 13.453125 -17.375 C 13.816406 -17.0625 14.125 -16.75 14.375 -16.4375 C 14.957031 -15.675781 15.363281 -14.820312 15.59375 -13.875 L 13.203125 -13.875 C 13.046875 -14.40625 12.765625 -14.890625 12.359375 -15.328125 C 12.015625 -15.679688 11.53125 -16.007812 10.90625 -16.3125 C 10.289062 -16.625 9.472656 -16.78125 8.453125 -16.78125 C 7.765625 -16.78125 7.15625 -16.695312 6.625 -16.53125 C 6.101562 -16.363281 5.660156 -16.140625 5.296875 -15.859375 C 4.929688 -15.578125 4.660156 -15.25 4.484375 -14.875 C 4.316406 -14.507812 4.234375 -14.128906 4.234375 -13.734375 C 4.234375 -13.015625 4.515625 -12.445312 5.078125 -12.03125 C 5.640625 -11.625 6.347656 -11.273438 7.203125 -10.984375 C 8.054688 -10.691406 8.976562 -10.414062 9.96875 -10.15625 C 10.96875 -9.90625 11.894531 -9.570312 12.75 -9.15625 C 13.601562 -8.738281 14.3125 -8.195312 14.875 -7.53125 C 15.4375 -6.863281 15.71875 -5.984375 15.71875 -4.890625 C 15.71875 -4.171875 15.5625 -3.476562 15.25 -2.8125 C 14.945312 -2.15625 14.492188 -1.578125 13.890625 -1.078125 C 13.296875 -0.585938 12.566406 -0.195312 11.703125 0.09375 C 10.835938 0.382812 9.84375 0.53125 8.71875 0.53125 Z M 8.71875 0.53125 "/></g></g></g><g fill="#051d30" fill-opacity="1"><g transform="translate(135.25961, 296.308638)"><g><path d="M 1.703125 -18.28125 L 6.53125 -18.28125 L 6.53125 -4.4375 L 15.28125 -4.4375 L 15.28125 0 L 1.703125 0 Z M 1.703125 -18.28125 "/></g></g></g><g fill="#051d30" fill-opacity="1"><g transform="translate(150.800971, 296.308638)"><g><path d="M 1.703125 -18.28125 L 15.8125 -18.28125 L 15.8125 -13.84375 L 6.53125 -13.84375 L 6.53125 -11.109375 L 13.984375 -11.109375 L 13.984375 -7.1875 L 6.53125 -7.1875 L 6.53125 -4.4375 L 15.8125 -4.4375 L 15.8125 0 L 1.703125 0 Z M 1.703125 -18.28125 "/></g></g></g><g fill="#051d30" fill-opacity="1"><g transform="translate(167.648336, 296.308638)"><g><path d="M 1.703125 -18.28125 L 7.578125 -18.28125 L 13.984375 -6.796875 L 14.234375 -6.796875 L 13.84375 -9.140625 L 13.84375 -18.28125 L 18.671875 -18.28125 L 18.671875 0 L 12.796875 0 L 6.40625 -11.5 L 6.140625 -11.5 L 6.53125 -9.140625 L 6.53125 0 L 1.703125 0 Z M 1.703125 -18.28125 "/></g></g></g><g fill="#051d30" fill-opacity="1"><g transform="translate(188.021883, 296.308638)"><g><path d="M 6.015625 -13.84375 L 0.265625 -13.84375 L 0.265625 -18.28125 L 16.59375 -18.28125 L 16.59375 -13.84375 L 10.84375 -13.84375 L 10.84375 0 L 6.015625 0 Z M 6.015625 -13.84375 "/></g></g></g><g fill="#051d30" fill-opacity="1"><g transform="translate(204.869247, 296.308638)"><g><path d="M 1.703125 -18.28125 L 15.8125 -18.28125 L 15.8125 -13.84375 L 6.53125 -13.84375 L 6.53125 -11.109375 L 13.984375 -11.109375 L 13.984375 -7.1875 L 6.53125 -7.1875 L 6.53125 -4.4375 L 15.8125 -4.4375 L 15.8125 0 L 1.703125 0 Z M 1.703125 -18.28125 "/></g></g></g><g fill="#051d30" fill-opacity="1"><g transform="translate(221.716612, 296.308638)"><g><path d="M 9.40625 0.515625 C 8.46875 0.515625 7.628906 0.421875 6.890625 0.234375 C 6.148438 0.0546875 5.484375 -0.175781 4.890625 -0.46875 C 4.304688 -0.769531 3.796875 -1.109375 3.359375 -1.484375 C 2.929688 -1.867188 2.5625 -2.265625 2.25 -2.671875 C 1.519531 -3.609375 0.988281 -4.675781 0.65625 -5.875 L 5.609375 -5.875 C 5.773438 -5.4375 6.015625 -5.0625 6.328125 -4.75 C 6.597656 -4.476562 6.984375 -4.226562 7.484375 -4 C 7.984375 -3.769531 8.625 -3.65625 9.40625 -3.65625 C 10.382812 -3.65625 11.082031 -3.816406 11.5 -4.140625 C 11.925781 -4.460938 12.140625 -4.820312 12.140625 -5.21875 C 12.140625 -5.695312 11.875 -6.066406 11.34375 -6.328125 C 10.8125 -6.597656 10.140625 -6.835938 9.328125 -7.046875 C 8.523438 -7.265625 7.65625 -7.488281 6.71875 -7.71875 C 5.789062 -7.957031 4.921875 -8.289062 4.109375 -8.71875 C 3.304688 -9.144531 2.640625 -9.695312 2.109375 -10.375 C 1.578125 -11.050781 1.3125 -11.945312 1.3125 -13.0625 C 1.3125 -13.8125 1.476562 -14.535156 1.8125 -15.234375 C 2.15625 -15.929688 2.648438 -16.546875 3.296875 -17.078125 C 3.941406 -17.609375 4.734375 -18.03125 5.671875 -18.34375 C 6.609375 -18.65625 7.675781 -18.8125 8.875 -18.8125 C 9.769531 -18.8125 10.566406 -18.726562 11.265625 -18.5625 C 11.960938 -18.394531 12.578125 -18.175781 13.109375 -17.90625 C 13.640625 -17.632812 14.101562 -17.328125 14.5 -16.984375 C 14.894531 -16.648438 15.234375 -16.300781 15.515625 -15.9375 C 16.160156 -15.101562 16.601562 -14.144531 16.84375 -13.0625 L 11.890625 -13.0625 C 11.785156 -13.351562 11.609375 -13.613281 11.359375 -13.84375 C 11.148438 -14.039062 10.847656 -14.21875 10.453125 -14.375 C 10.066406 -14.539062 9.539062 -14.625 8.875 -14.625 C 7.957031 -14.625 7.316406 -14.488281 6.953125 -14.21875 C 6.585938 -13.945312 6.40625 -13.648438 6.40625 -13.328125 C 6.40625 -12.960938 6.5625 -12.664062 6.875 -12.4375 C 7.1875 -12.207031 7.59375 -12.003906 8.09375 -11.828125 C 8.601562 -11.660156 9.179688 -11.5 9.828125 -11.34375 C 10.484375 -11.1875 11.144531 -11.007812 11.8125 -10.8125 C 12.488281 -10.625 13.148438 -10.398438 13.796875 -10.140625 C 14.453125 -9.878906 15.03125 -9.535156 15.53125 -9.109375 C 16.039062 -8.691406 16.453125 -8.191406 16.765625 -7.609375 C 17.085938 -7.023438 17.25 -6.316406 17.25 -5.484375 C 17.25 -4.703125 17.082031 -3.945312 16.75 -3.21875 C 16.414062 -2.5 15.921875 -1.859375 15.265625 -1.296875 C 14.617188 -0.742188 13.804688 -0.304688 12.828125 0.015625 C 11.847656 0.347656 10.707031 0.515625 9.40625 0.515625 Z M 9.40625 0.515625 "/></g></g></g></svg>